<svg width="128" height="128" viewBox="0 0 128 128" fill="none" xmlns="http://www.w3.org/2000/svg">
  <rect width="128" height="128" rx="28" fill="#0F172A"/>
  <path d="M35 43C35 34.1634 42.1634 27 51 27H77C85.8366 27 93 34.1634 93 43V47H81V43C81 40.7909 79.2091 39 77 39H51C48.7909 39 47 40.7909 47 43V49.5C47 51.7091 48.7909 53.5 51 53.5H72C87.1878 53.5 99.5 65.8122 99.5 81C99.5 96.1878 87.1878 108.5 72 108.5H56C40.8122 108.5 28.5 96.1878 28.5 81V77H40.5V81C40.5 89.5604 47.4396 96.5 56 96.5H72C80.5604 96.5 87.5 89.5604 87.5 81C87.5 72.4396 80.5604 65.5 72 65.5H51C42.1634 65.5 35 58.3366 35 49.5V43Z" fill="#F8FAFC"/>
</svg>
